<svg width="168" height="208" viewBox="0 0 168 208" fill="none" xmlns="http://www.w3.org/2000/svg">
<path d="M163 113.886C163 163.377 128.438 188.123 87.3575 202.476C85.2063 203.207 82.8696 203.172 80.7412 202.377C39.5625 188.123 5 163.377 5 113.886V44.5978C5 41.9725 6.0404 39.4549 7.89232 37.5986C9.74424 35.7422 12.2559 34.6994 14.875 34.6994C34.625 34.6994 59.3125 22.8214 76.495 7.77598C78.587 5.98437 81.2484 5 84 5C86.7516 5 89.413 5.98437 91.505 7.77598C108.786 22.9204 133.375 34.6994 153.125 34.6994C155.744 34.6994 158.256 35.7422 160.108 37.5986C161.96 39.4549 163 41.9725 163 44.5978V113.886Z" stroke="#FFF" stroke-width="10" stroke-linecap="round" stroke-linejoin="round"/>
<path d="M84 104L79.0833 99.0834L69.25 113.833H118.417L98.75 84.3334L84 104Z" fill="#FFF"/>
<path d="M123.333 54.8334H64.3333C58.925 54.8334 54.5 59.2584 54.5 64.6667V123.667C54.5 129.075 58.925 133.5 64.3333 133.5H123.333C128.742 133.5 133.167 129.075 133.167 123.667V64.6667C133.167 59.2584 128.742 54.8334 123.333 54.8334ZM64.3333 123.667V64.6667H123.333V123.667H64.3333Z" fill="#FFF"/>
<path d="M44.6666 84.3334H34.8333V143.333C34.8333 148.742 39.2583 153.167 44.6666 153.167H103.667V143.333H44.6666V84.3334Z" fill="#FFF"/>
</svg>
